<?xml version="1.0" encoding="UTF-8"?>
<svg id="Layer_2" data-name="Layer 2" xmlns="http://www.w3.org/2000/svg" xmlns:xlink="http://www.w3.org/1999/xlink" viewBox="0 0 96.64 113.5">
  <defs>
    <style>
      .cls-1 {
        fill: none;
      }

      .cls-1, .cls-2, .cls-3, .cls-4, .cls-5, .cls-6, .cls-7, .cls-8, .cls-9, .cls-10, .cls-11, .cls-12, .cls-13, .cls-14, .cls-15, .cls-16, .cls-17, .cls-18, .cls-19, .cls-20, .cls-21, .cls-22, .cls-23, .cls-24, .cls-25, .cls-26, .cls-27, .cls-28, .cls-29 {
        stroke-width: 0px;
      }

      .cls-2 {
        fill: url(#linear-gradient);
      }

      .cls-3 {
        fill: url(#linear-gradient-2);
      }

      .cls-4 {
        fill: url(#linear-gradient-3);
      }

      .cls-5 {
        fill: #45b2b6;
      }

      .cls-6 {
        fill: #75c6d1;
      }

      .cls-7 {
        fill: #2ab8d3;
      }

      .cls-8 {
        fill: #5c6d6a;
      }

      .cls-9 {
        fill: #2d3232;
      }

      .cls-10 {
        fill: #707979;
      }

      .cls-11 {
        fill: #0c2d26;
      }

      .cls-12 {
        fill: #365053;
      }

      .cls-13 {
        fill: #16a3ac;
      }

      .cls-14 {
        fill: #0e1a1a;
      }

      .cls-15 {
        fill: #06292c;
      }

      .cls-16 {
        fill: #dee1e6;
      }

      .cls-17 {
        fill: #cad6d9;
      }

      .cls-18 {
        fill: #c0e3eb;
      }

      .cls-19 {
        fill: #bbbfc4;
      }

      .cls-20 {
        fill: #999693;
      }

      .cls-21 {
        fill: #015c65;
      }

      .cls-22 {
        fill: #9fd8de;
      }

      .cls-23 {
        fill: #e5dcd5;
      }

      .cls-24 {
        fill: #016b76;
      }

      .cls-25 {
        fill: #03393b;
      }

      .cls-26 {
        fill: #04808b;
      }

      .cls-27 {
        fill: #03929c;
      }

      .cls-28 {
        fill: #014d53;
      }

      .cls-29 {
        fill: #688083;
      }
    </style>
    <linearGradient id="linear-gradient" x1="31.51" y1="85.59" x2="33.55" y2="95.05" gradientUnits="userSpaceOnUse">
      <stop offset="0" stop-color="#01808c"/>
      <stop offset="1" stop-color="#015460"/>
    </linearGradient>
    <linearGradient id="linear-gradient-2" x1="45.11" y1="7.32" x2="47.96" y2="9.5" gradientUnits="userSpaceOnUse">
      <stop offset="0" stop-color="#7f8085"/>
      <stop offset="1" stop-color="#5b636a"/>
    </linearGradient>
    <linearGradient id="linear-gradient-3" x1="24.68" y1="43.64" x2="19.16" y2="70.92" gradientUnits="userSpaceOnUse">
      <stop offset="0" stop-color="#004b55"/>
      <stop offset=".12" stop-color="#038c96"/>
      <stop offset=".23" stop-color="#00404b"/>
      <stop offset="1" stop-color="#10a4ae"/>
    </linearGradient>
  </defs>
  <g id="Layer_1-2" data-name="Layer 1">
    <g>
      <path class="cls-1" d="m77.42,58.78c.65,2.22.41,5.23-.96,7.17-2.38,3.37-7.07,3.13-9.8.36-2.36-4.35-.09-10.04,5.44-9.2.08-4.56-9.19-2.58-10.93,3.29-1.59,5.36,1.31,10.24,5.73,13.08,5.31,3.42,12.11,2.83,17.44-.36,3.47,3.33,1.93,11.93.12,15.95-2.07,4.6-8.4,11.76-13.56,12.6-3.46.56-8.7-.63-11.83-2.27-1.02,3.16-3.03,5.86-4.66,8.72,1.7-.49,1.94-2.4,2.15-2.39.97,2.88.53-.03,1.43-2.03.59.67,1.2,1.35,1.31,2.27.74-.35,9.73-3.76,8.66-1.61-.36.73-10.03,4.39-11.53,4.48l-4.66,3.94c.2-.75,3.89-3.6,3.4-4.24-.03-.05-1.08-.2-1.13-.18-.29.11-3.39,4.17-4.6,3.7,1.69-1.77,3.43-3.58,4.54-5.79.06-.53-1.45-3.92-1.79-4.72l.36-.24c.46.97,1.02,1.79,1.79,2.51.11.1.54.76.72.66.62-1.37,1.69-2.55,2.15-4,.84-2.66-1.17-5.78-1.91-8.6-.25-.94-.41-1.91-.6-2.87l.12-.12c.95,2.83,2.34,4.97,4.6,6.93,5.78,5.03,15.23,4.26,18.22-1.79,1.62-3.28,1.36-9.13-.36-12.31.41-.46,1.97-4.15,1.79-4.36l-5.73-.06c-.24-.03-.39.25-.72.36-1.19.4-3.44,1.7-4.18,2.69-.43.53-.33.85-.36.9-.04.07-.08.17-.12.24-2.58,4.66-.59,1.56,2.33,2.63,1.69.62,3.16,3.77.36,5.62-1.69,1.12-2.84.86-4.66.24-3.31-1.13-6.06-3.87-7.83-6.81-1.04-2.22-2.04-4.5-2.15-6.99h2.75v-3.35c2.55-.03,2.4-2.93.96-4.24-.2-.18-.09-.12-.36-.24-.84-.36-1.81-.32-2.69-.48-1.46-.68-.31-7.24,1.97-10.45,5.55-7.83,16.75-5.51,18.76,1.37Z"/>
      <path class="cls-1" d="m39.55,67.86h-2.69c-.16.05-.41.68-.54.84-1.43,1.73-1.69,3.73.96,4.12v3.11l2.09.06c.28.12.19,1.04.18,1.31-.02.77-.76,3.37-1.08,4.18-.63,1.61-2.33,4.17-3.58,5.38-1.55,1.48-4.21,3.18-6.33,3.46-6.9.92-5.87-7.85.84-6.15-.55-.99-.9-2.11-1.55-3.05-1.06-1.53-3.12-2.91-4.9-3.46-.03,0-.04-.31-.48-.24-2.02.13-3.91-.11-5.85-.66l2.39,5.08c-1.56,3-2.09,7.65-1.08,10.87,1.2,3.81,4.62,6.04,8.48,6.33,3.78,3.77,8.56,7.22,14.1,7.35-1.14,1.11-.87,1.3-2.45,1.25-4.47-.12-8.55-2.79-11.71-5.73-6.14-2.02-11.42-6.78-14.04-12.72-1.5-3.4-4.07-13.69-.12-15.83.3.17.65.32.96.48.96.48,1.96.9,2.99,1.19,4.31,1.24,8.82,1.03,12.72-1.31,5.35-3.2,8.66-10.43,4.24-15.83-2.49-3.04-8.67-4.35-8.84-1.43-.08,1.4.48.21,2.45.78.78.23,2.11,1.34,2.57,2.03,1,1.5,1.13,3.29.84,5.02-.08.45-.38,1.43-.6,1.79-.16.26-.9.98-1.19,1.19-1.47,1.05-3.41,1.3-5.14.96-.37-.07-.63-.21-.96-.36-6.66-3.05-4.02-17.1,7.59-15.29,1.04.16,1.71.58,2.39.84.12.05.24-.48,2.27,1.08,3.91,3,5.66,8.62,5.08,13.38Z"/>
      <path class="cls-1" d="m95.7,52.33c-.18,3.1-.12,6.35-.96,9.38-.51,1.86-2.31,5.54-3.46,7.11-.65.89-4.51,4.59-4.84,4.66-.14.03-1.68-.47-1.61-.72,3.09-2.01,5.43-4.98,7.05-8.24,2.46-4.97,3.11-10.34,3.23-15.83.11-5.42-.19-12.99-2.51-17.92-4-8.52-14.82-11.99-23.42-8.9-.43-1.45-3.36-.43-3.94-.48-.41-.04-.87-.11-.72-.6.14-.09.82-.67.84-.78-.66-1.8-2.04-3.58-3.82-4.36-2.11-.92-4.2-.59-6.21.48-.55-.08-.45-.24-.48-.24.1-1.33.73-2.74.96-3.94l.66.6c-.31-.58,1.94-1.01,2.39-1.08,6.51-.95,13.12,1.69,17.44,6.57,8.51.79,17.48,7.02,19.53,15.59,1.59,6.62.5,12.14-.12,18.7Z"/>
      <path class="cls-14" d="m19,20.55c1.56-.04,2.77.07,4.3.36-.55.53-4.69,2.17-4.84,2.39-.26.39.57.08.42.48-1.41-.04-4.05.15-5.2.96-1.37.96,1.41.16,2.03.12,6.13-.36,9.64,1.4,13.92,5.5-.31.11-.57.04-.84-.12-.6-.35-.92-1.6-5.44-2.87-1.06-.12-3.85-.81-4.18-.84-.95-.07-2.49.4-3.46.36-3.64,1.05-6.23,3.53-9.26,5.67l.06.3c1.14.31,3.2,1.5,3.76,2.51-4.38,3.18-6.68,8.77-7.29,13.98-.63.68.31,2.04-1.55,3.35-.18-2.41-.29-6.2-.24-8.6.02-.71.12-.79.12-.84.25-7.11.77-12.37,5.97-17.68l-.6,1.55c-1.73,3.31-.1.21,2.87-1.67,3.47-2.21,6.73-1.94,6.69-3.29-.04-1.29-3.06.07-3.82.42v-.6c2.22-.94,4.14-1.37,6.57-1.43Z"/>
      <path class="cls-1" d="m40.03,11.83c.04.23.73,1.89.96,2.75.13.52.41,1.51.24,1.91-4.06-3.08-10.24-1.12-10.63,4.3l-4.18-.72c-1.54-.03-3.06-.3-4.6-.24-1.14.05-3.72.35-2.81.72-2.43.07-4.35.5-6.57,1.43-2.21.93-3.48,1.89-5.14,3.58-5.2,5.31-5.72,10.57-5.97,17.68-2.21-1.29-.93-8.37-.36-10.57,3.09-11.93,17.24-17.62,28.26-13.2,1.1-4.5,7.89-6.5,11.47-3.94-.05-3.64-5.91-2.54-8.36-2.03-5.96,1.23-8,5.3-11.17,4.12,8.22-8.76,16.42-5.12,18.34-5.44.1-.02.39-.3.54-.36Z"/>
      <path class="cls-1" d="m41.22,89.37c-.3,2.24-1.09,4.4-1.67,6.57-.17.64-.45,1.26-.6,1.91-.08.34-.19.72-.36,1.02l.12.54c1.22,1.92,2.62,6.31,3.23,4.18.33-.23.63-.56.72-.96,1.11-1.38,1.48-3.11,1.91-4.78.15-.03.15.33.12.6-.11.91-.37,1.83-.48,2.75-.23-.06-.25.12-.36.36-.65,1.4-1.12,2.9-1.91,4.24,1.05,2.58,3.05,4.6,5.02,6.51-.42.46-1.34-1.15-1.85-1.55-.24-.19-1.48-.35-2.15-1.55-3.72,2.78-5.57-3.6-.96-.36.51-.3-4.22-8.07-4.42-8.96-2.98,2.46-7.2,2.05-9.74-.84,5.28-.18,9.51-2.93,12.19-7.47.85-1.44,1.4-3.75,1.19-2.21Z"/>
      <path class="cls-14" d="m48.51,98.21c.28,4.29.88,4.18,1.43,6.57-1.86.98-1.54,1.12-1.67,3.17.87-.05,1.83-.4,1.91-1.25.88.07,2.09-2.54,2.15-3.4.04-.63-.42-1.53-.12-1.85.01.03-.01.09,0,.12.34.8,1.85,4.19,1.79,4.72-1.11,2.21-2.85,4.02-4.54,5.79-.44.46-.82.97-1.25,1.43-.24.02-.89-.84-1.25-1.19-1.97-1.91-3.96-3.93-5.02-6.51.79-1.34,1.26-2.84,1.91-4.24.11,1.07-.09,2.02.12,3.11.28,1.49,1.33,2.65,2.69,3.23-.6-2.28-.65-2.22.3-4.18.29-.61,1.04-1.31,1.19-2.21.09-.51-.19-1.42-.12-2.03.01-.1.41.16.48-1.85,0,.2-.01.4,0,.6Z"/>
      <path class="cls-14" d="m91.88,64.52c-1.61,3.26-3.96,6.23-7.05,8.24-.16.11-.32.27-.48.36-5.34,3.18-12.13,3.77-17.44.36.37-1.18.18-1-.6-2.03.14-.02.26.05.36.12,4.61,3.3,9.12,3.71,14.4,1.55,7.33-3,12.13-11.58,12.37-19.24.02-.54.01-1.01,0-1.55.34.16,1.12.51,1.19.78-.13,3.09-.82,6.41-1.91,9.32-.13.36-1.24,2.19-.84,2.09Z"/>
      <path class="cls-1" d="m1.2,44.09c-.05,2.41.06,6.19.24,8.6.46,6.37,1.74,12.28,6.45,16.97.68,1.07,2.17,2.26,3.23,2.99-.71,1.04-1.8.02-2.57-.6-4.15-3.3-7.96-10.54-7.35-15.95-.9-4.03-1.46-8.18-1.08-12.31l1.08.3Z"/>
      <path class="cls-1" d="m91.28,68.82c1.16-1.57,2.95-5.25,3.46-7.11.83-3.03.78-6.28.96-9.38,1,.56.99,5.32.84,6.39-.23,1.63-3.11,10.42-5.26,10.1Z"/>
      <path class="cls-1" d="m55.92,9.56c-.03-.13-.63-1.44-.72-1.55-.52-.68-.61.11-.84-.3-.36-2.06-1.78-3.64-2.87-5.32-2.12-3.27-.45-1.64.96.06.42.51,3.91,5.65,4.06,5.97.4.86,0,.26-.6,1.13Z"/>
      <path class="cls-1" d="m51.5,2.39c1.09,1.68,2.51,3.26,2.87,5.32.22.41.32-.39.84.3-.79-.22-1.48.55-1.67.18-.5-2-1.7-3.74-2.99-5.32l.96-.48Z"/>
      <path class="cls-14" d="m11.71,71.32c.78.79,1.89,1.82,1.43,2.51-.31-.15-.66-.31-.96-.48-.27-.15-.78-.51-1.08-.72-1.06-.72-2.54-1.91-3.23-2.99,2.51,2.5,1.74,1.03,2.57,1.19.05.01.1.34.24.36.15.02.97.1,1.02.12Z"/>
      <path class="cls-1" d="m69.36,103.82c1.05-.06,1.2,1.63.48,2.03-1.55.85-1.8-1.95-.48-2.03Z"/>
      <path class="cls-1" d="m72.23,10.51c3.91-.6,6.71,3.78,7.83,6.99-1.68-2.99-3.7-7.3-7.83-6.75-1.05.14-2.81,1.62-1.43.36.47-.14.95-.52,1.43-.6Z"/>
      <path class="cls-1" d="m42.95,110.99c1.02-.19,2,1.31,1.08,1.55-1.41.37-2.42-1.31-1.08-1.55Z"/>
      <path class="cls-1" d="m59.32,99.88l1.08,4.9c-1.12-1.28-1.55-3.26-1.08-4.9Z"/>
      <path class="cls-1" d="m43.43,2.03l.18.06c-4.57,6.27-4.97,5.43-.18-.06Z"/>
      <path class="cls-1" d="m1.14,61.05c.15.3.25.7.3,1.02.54,3.61-.66,2.13-.3-1.02Z"/>
      <path class="cls-16" d="m45.4,3.58c-.04.08.09.5-.12.9-.13.04-.8.38-.84.42-.18-.54.61-1.36.96-1.31Z"/>
      <path class="cls-27" d="m55.08,94.26c.51,1.39,1.56,3.31,1.79,4.12.23.81.1,1.7.36,2.09-.46,1.45-1.53,2.63-2.15,4-.18.1-.6-.55-.72-.66-.72-1.52-1.11-3.06-1.55-4.66-1.59-5.75-2.58-10.85-2.75-16.85.12.02.3-.03.36,0,.18.08.06.32.42.24.04,0-.05-.16.42-.36.4-.17.63-.14,1.08-.54-.12,4.81,1.15,8.23,2.75,12.6Z"/>
      <path class="cls-14" d="m66.67,66.31c-.41-.41-.63-.28-1.08-1.25-.32-1.47-1.03-2.86-1.08-4.36-.04-1.5.39-2.09.3-2.15-.91.22-1.14,1.11-1.49,1.79-.09.18-.16.27-.24.48-2.2,5.68,1.58,8.47,3.23,10.63.78,1.03.97.85.6,2.03-4.42-2.84-7.33-7.72-5.73-13.08,1.74-5.86,11.01-7.84,10.93-3.29-5.52-.84-7.79,4.85-5.44,9.2Z"/>
      <path class="cls-15" d="m58.19,83.15c1.76,2.94,4.52,5.68,7.83,6.81,1.82.62,2.97.88,4.66-.24,2.81-1.85,1.33-5-.36-5.62-2.92-1.06-4.91,2.03-2.33-2.63-.27,3.43.7-.29,4,2.39,2.06,1.67,2.25,4.25.9,6.45-1.31,2.14-4.6,3.66-7.05,3.23-3.14-.56-5.67-4.2-7.41-6.63-.05-.07,0-.19.12-.18,1.61,1.7,2.25,2.55,4.42,3.82,1.98,1.16,4,2.19,6.27,1.19,3.2-1.41-.95-.15-4.24-1.31-2.76-.98-6.14-4-7.53-6.57-.54-1-1.16-2.81-1.55-3.94-.08-.24-.16-.48-.24-.72,1.08-.23.84,1.15,2.51,3.94Z"/>
      <path class="cls-13" d="m72.76,78.97c-.42.53-.81,1.33-1.31,1.85,2.32,1.09,3.27,2.63,3.29,5.2,1.11-1.93,1.16-2.93,1.49.24-.92,2.64-1.46,2.95-3.23,4.66l-.12-.6c1.35-2.2,1.16-4.78-.9-6.45-3.3-2.68-4.27,1.04-4-2.39.04-.07.08-.17.12-.24,1.77-.02,3.11-1.62,4.66-2.27Z"/>
      <path class="cls-6" d="m59.74,68.58l-.48,2.69c-.19.42-1.12.05-1.43.06.06-.2.29-.27.36-.48.19-.54.17-1.6-.54-1.79-.87-.23-17.23-.24-18.1,0l-.24-.36s.34-.24.36-.24c2.44-.38,15.64.38,19.71-.12.27.12.16.06.36.24Z"/>
      <path class="cls-15" d="m77.66,94.02c-.28-.2.26-.85.24-.9-.03-.07-1.04-.86-1.31-.66,1.85-3.35,1.09-6.03.84-9.56-.02-.3-.36-1-.12-1.19,1.72,3.17,1.98,9.03.36,12.31Z"/>
      <path class="cls-13" d="m73.36,77.3c1.18,1.57,2.99,2.66,3.94,4.42-.24.19.1.9.12,1.19-.47.71.67,2.2-.72,2.15-.43-2.3-1.77-4.53-3.23-6.33-.42-.52-.86-.81-.84-1.08.33-.11.48-.38.72-.36Z"/>
      <path class="cls-15" d="m78.74,59.74c.27,1.4.39,2.49-.12,3.88-.17.48-1.98,3.14-2.15,2.33,1.37-1.94,1.6-4.95.96-7.17.32-1.58,1.19-.35,1.43.54,0,.02-.18.08-.12.42Z"/>
      <path class="cls-22" d="m73.48,78.73c-.8-.32-.65.16-.72.24-1.55.65-2.89,2.25-4.66,2.27.02-.04-.07-.37.36-.9.74-.99,2.99-2.29,4.18-2.69-.02.27.42.55.84,1.08Z"/>
      <path class="cls-15" d="m57.23,100.48c-.26-.39-.12-1.28-.36-2.09-.24-.81-1.29-2.74-1.79-4.12,2.03,1.43-.23-1.43.24-2.39.74,2.82,2.75,5.94,1.91,8.6Z"/>
      <path class="cls-15" d="m52.81,99.16c.44,1.6.83,3.14,1.55,4.66-.78-.72-1.33-1.54-1.79-2.51-.17-.36-.53-1.4-.72-1.91l.96-.24Z"/>
      <path class="cls-14" d="m16.13,75.03c1.8.18,3.5.68,5.32.6.05,0,.15-.67.72,0l2.09-1.43c2.3-.56,4.66-2.22,6.21-3.94,1.72-1.91,2.58-3.44,2.75-6.09.13-2.07-.37-2.96-2.03-4.3-.49-.39-2.02-1.72-1.91-.6-.46-.69-1.79-1.8-2.57-2.03-1.97-.57-2.53.62-2.45-.78.18-2.92,6.35-1.61,8.84,1.43,4.42,5.4,1.1,12.63-4.24,15.83-3.91,2.34-8.42,2.56-12.72,1.31Z"/>
      <path class="cls-14" d="m28.56,90.32c-.27,1.19-1.93.28-2.75.6,4.34,3.04,10.43-2,12.54-5.97.09,3.71-4.44,7.45-7.89,8.12-5.67,1.11-10.13-4.2-7.65-8,.96-1.47,3.32-2.61,4.96-1.79.43-.11-.16-1.24-.18-1.55,0-.03.16-.54.24-.6.65.94,1,2.06,1.55,3.05-6.7-1.7-7.73,7.08-.84,6.15Z"/>
      <path class="cls-15" d="m17.09,73.95c1.67.45,3.89.66,5.62.48.3-.03,1.32-.18,1.55-.24l-2.09,1.43c-.57-.67-.67,0-.72,0-1.82.08-3.52-.42-5.32-.6-1.03-.3-2.03-.72-2.99-1.19.45-.69-.65-1.71-1.43-2.51,1.42.59,3.02,2,5.38,2.63Z"/>
      <path class="cls-15" d="m19,85.3c-.18.82-.33,1.41-.36,2.27-.06,1.57.13,3.7.84,5.14-1-.39-.5.69-1.55,0-1.01-3.22-.48-7.87,1.08-10.87.02-.05.45-.61.6-.84.62.52-1.72,3.79-.6,4.3Z"/>
      <path class="cls-25" d="m39.91,80.52c-.42,1.17-1.58,3.4-2.27,4.42-.92,1.37-2.01,2.59-3.35,3.58l.6-1.67c1.25-1.2,2.96-3.76,3.58-5.38.66.73.4-1.31,1.43-.96Z"/>
      <path class="cls-27" d="m22.94,77.66v.12c-1.35,2.78-3.24,4.41-3.94,7.53-1.13-.51,1.22-3.78.6-4.3.85-1.32,2-2.3,2.87-3.58.44-.07.45.23.48.24Z"/>
      <path class="cls-22" d="m27.84,81.12c-.08.05-.24.57-.24.6l-4.18-2.51c-.16-.49-.1-1.03-.48-1.43v-.12c1.78.56,3.83,1.93,4.9,3.46Z"/>
      <path class="cls-15" d="m31.19,59.86c.19,1.09.28,2.11.24,3.23-.49.24-.9,1.46-1.31,1.19.29-1.72.16-3.52-.84-5.02-.11-1.12,1.42.2,1.91.6Z"/>
      <path class="cls-11" d="m34.89,86.86l-.6,1.67c-2.44,1.81-5.41,2.96-8.48,2.39.82-.32,2.48.59,2.75-.6,2.12-.28,4.79-1.98,6.33-3.46Z"/>
      <path class="cls-13" d="m39.55,67.86c-.03.26-.03.62.12.6-.02,0-.34.23-.36.24-1.4.43-1.95,1.2-1.19,2.63-.55-.03-1.1.12-1.31-.18-.09-1.25.31-2.62-.48-2.45.13-.16.38-.78.54-.84h2.69Z"/>
      <path class="cls-15" d="m40.74,77.06c-.26,1.37-.34,2.1-.84,3.46-1.04-.35-.77,1.68-1.43.96.32-.81,1.05-3.42,1.08-4.18l1.19-.24Z"/>
      <path class="cls-21" d="m31.31,64.63c-.24,1.25-1.46,3.63-2.99,2.63.29-.21,1.03-.93,1.19-1.19.64,0,.8-1.34,1.79-1.43Z"/>
      <path class="cls-26" d="m22.23,67.86c.33.15.59.29.96.36-.01,1.14-2.35.73-2.39.3-.01-.1.51-.1.36-.78.32.15.79.44,1.08.12Z"/>
      <path class="cls-28" d="m31.43,63.08c-.01.27-.09,1.42-.12,1.55-.99.09-1.15,1.43-1.79,1.43.22-.36.52-1.34.6-1.79.41.26.82-.96,1.31-1.19Z"/>
      <path class="cls-2" d="m20.55,93.43c.06-.5.06-1.01.24-1.49.95-2.58,1.49.55,5.2,1.37,1,.22,4.92.49,4.48-.24,3.45-.67,7.98-4.41,7.89-8.12.18-.64-.27.34-.72,0,.69-1.02,1.85-3.25,2.27-4.42.49-1.36.57-2.1.84-3.46.05-.27-.14-.94.18-1.08,1.75-.77,1.5,1.83,1.13,4.36-.36,2.5-2.32,8.29-3.58,10.51-2.97,5.22-8.75,8.24-14.4,5.08-1.99-1.11-2.71-2.77-3.52-2.51Z"/>
      <path class="cls-21" d="m58.55,86.74c-.11-.01-.17.11-.12.18,1.74,2.43,4.27,6.07,7.41,6.63,1.24.57,2.76.08,4.06-.24,1.59.48,3.13-.98,4.66-.72-6.81,8.28-13.43,4.52-17.8-3.46.71-.94-.23-2.17,1.19-3.11.39.38.49.61.6.72Z"/>
      <path class="cls-27" d="m46,82.79c-.03,1.64-.12,3.26-.24,4.9-.06.81-.03,1.71-.12,2.51-.32.11-.66.63-.36.9-1.53,3.73-2.99,7.47-3.58,11.47l.24,1.02c-.16.11-.3.21-.42.36l-.18-.18c-.17-1.49-1.49-2.39-.72-2.75-1.07-1.88,1.49-4.66,2.03-8.36.1-.46-.01-1.99,0-2.09.08-.56.16-1.11.24-1.67.39-2.63.85-5.25,1.19-7.89,1.18.24,1.29,3.24,1.73,1.67l.18.12Z"/>
      <path class="cls-21" d="m49.35,91.4c.61,3.11.07,6.64,1.55,9.56-1.1-.18-1.07-1.47-1.91-1.97.16-.34.03-.67,0-1.02-.04-.52.08-4.96-.18-5.02-.58-.13-.37,2.82-.3,4.66-.07,2.01-.47,1.75-.48,1.85-.07.61.21,1.52.12,2.03-.16.9-.9,1.6-1.19,2.21.02-.4-.29-.72-.36-1.08-.03-.16.14-.85.12-.9-.04-.12-.31,0-.36-.12-.21-.5-.33-1.35-.96-1.49,1.04-2.88,1.25-5.93,1.43-8.96.82-.28-.38-2.41,1.25-.48l1.25.72Z"/>
      <path class="cls-27" d="m22.82,85.06c-2.48,3.8,1.98,9.11,7.65,8,.44.73-3.48.46-4.48.24-3.71-.82-4.25-3.95-5.2-1.37-.18.48-.18,1-.24,1.49-.04.35.23.42-.06.6-.5-.43-.73-.72-1.02-1.31-.7-1.44-.9-3.56-.84-5.14.56,1.23.17-2.49,1.19-3.29.96-.74,1.37,1.08,1.73.78.08-.39.05-.67.18-1.08.23,2.17.16,1.97,1.08,1.08Z"/>
      <path class="cls-15" d="m46.84,86.74c-.02.16.02,1.13,0,1.79,0,.12,0,.24,0,.36-.03.75.04,1.52,0,2.27-.18,3.03-.39,6.08-1.43,8.96-.16.44-.39.89-.6,1.31-.22.44-.44.88-.66,1.31-.18-.53,0-1.04.06-1.55.11-.91.37-1.84.48-2.75,1.42-.47.29-1.16.24-1.25-.22-.38.1-1.13-.36.66-.43,1.67-.8,3.4-1.91,4.78,1.16-4.1,2.52-8.18,2.99-12.43.09-.79.06-1.7.12-2.51,1.11.06.64-1.02,1.08-.96Z"/>
      <path class="cls-27" d="m50.9,100.95c.19.37.33.79.66,1.08.27.07.17-.38.18-.96.21,0,.06-.35.18-.36.04,0,.25.61.3.72-.3.32.16,1.22.12,1.85-.06.87-1.27,3.48-2.15,3.4.07-.77-.08-1.21-.24-1.91-.55-2.39-1.15-2.28-1.43-6.57l.48-.24c.03.34.16.68,0,1.02.84.5.81,1.79,1.91,1.97Z"/>
      <path class="cls-6" d="m39.31,68.7l.24.36c-.48.13-1.49,1.4-.06,1.67,1.39.26,15.6-.1,18.7.12-.07.2-.3.28-.36.48-3.18.13-16.88.15-19.71,0-.75-1.43-.21-2.2,1.19-2.63Z"/>
      <path class="cls-26" d="m54.48,79.69c.11.07.34.21.48.24.25.68-.54.04,0,.84-.8.36.52,3.44,1.73,4.42.43.35.69.1.72.12.63.55.51.69.54.72-1.42.94-.49,2.17-1.19,3.11-1.68-3.06-2.7-5.8-2.99-9.32l.72-.12Z"/>
      <path class="cls-15" d="m42.9,88.89c-.08.56-.16,1.11-.24,1.67-.79,1.08-2.44,5.06-2.63,5.32-.08.11-.34.19-.48.06.58-2.17,1.37-4.33,1.67-6.57l1.67-.48Z"/>
      <path class="cls-15" d="m46.84,88.53c.02-.66-.02-1.63,0-1.79.23-2.08,1.56-1.4,1.67-1.25.24.3.37,3.75.72,4.42-.63.26-.02-1.27-2.39-1.37Z"/>
      <path class="cls-27" d="m76.59,92.47c-.12.22-.23.22-.24.24-1.19.2-.1-.29.12-1.02.06-.19.45-2.49.48-2.81.1-1.3,0-2.56-.24-3.82,1.38.05.25-1.44.72-2.15.25,3.53,1.02,6.2-.84,9.56Z"/>
      <path class="cls-13" d="m76.94,88.89c-.02.31-.42,2.62-.48,2.81-.22.72-1.31,1.22-.12,1.02-1.77,2.86-2.23,2.92-1.31-.48,0-.02.03-.04.12-.36.23-.83,1.12-2.65,1.19-4.3.46.15.08,1.3.6,1.31Z"/>
      <path class="cls-26" d="m46,78.97c.03,1.27.02,2.55,0,3.82l-.18-.12c-.44,1.57-.56-1.43-1.73-1.67.09-.67.16-1.36.24-2.03,1.02-.17,1.37.55,1.67,0Z"/>
      <path class="cls-26" d="m51.74,77.78c.03.43.05,1.43,0,1.79-1.1.89-1.46,1.25-1.31,2.75-.06-.03-.24.02-.36,0-.04-1.3-.08-3.44,0-4.66l1.67.12Z"/>
      <path class="cls-15" d="m55.44,78.61c-.69-.4-.96.42-1.43.78.14.17.29.17.48.3l-.72.12c-.04-.52-.35-3.52.06-3.7,1.42-.64,1.32,1.56,1.61,2.51Z"/>
      <path class="cls-21" d="m46,77.06c.05.62-.01,1.28,0,1.91-.31.55-.65-.17-1.67,0,.08-.63,0-1.39.12-2.03.75.22.77.39,1.55.12Z"/>
      <path class="cls-26" d="m75.15,91.87c-.09.31-.11.34-.12.36-.13.1-.38.24-.48.36-1.53-.26-3.07,1.2-4.66.72.07-.02.83-.45,1.31-.6.03,0,.24.13.66,0,.85-.27,3.1-1.56,3.29-.84Z"/>
      <path class="cls-25" d="m49.35,91.4l-1.25-.72c-1.64-1.94-.43.19-1.25.48.04-.75-.03-1.52,0-2.27.49-.21,2.33,1.36,2.39,1.49.02.05.01.48.12,1.02Z"/>
      <path class="cls-25" d="m51.74,77.78l-1.67-.12c.02-.29-.12-1.3.18-1.43.06-.03,1.25-.03,1.31,0,.3.13.16,1.25.18,1.55Z"/>
      <path class="cls-21" d="m51.26,82.2c-.47.2-.38.35-.42.36-.36.08-.23-.16-.42-.24-.15-1.5.21-1.85,1.31-2.75-.17,1.28-1.14,1.69-.48,2.63Z"/>
      <path class="cls-21" d="m55.44,78.61c.06.2.17.4.24.6.08.24.15.48.24.72-.31-.2-.68.07-.96,0-.13-.03-.36-.16-.48-.24-.19-.12-.34-.13-.48-.3.47-.36.74-1.18,1.43-.78Z"/>
      <path class="cls-25" d="m46,77.06c-.79.27-.8.1-1.55-.12.05-.23-.12-.7.18-.84.06-.03,1.26-.04,1.31,0,.12.09.04.76.06.96Z"/>
      <g>
        <path class="cls-14" d="m58.19,83.15c-1.67-2.79-1.43-4.17-2.51-3.94-.07-.2-.18-.4-.24-.6-.29-.95-.19-3.14-1.61-2.51-.41.18-.1,3.18-.06,3.7.28,3.52,1.31,6.25,2.99,9.32,4.37,7.99,10.99,11.74,17.8,3.46.1-.12.35-.26.48-.36-.92,3.39-.46,3.34,1.31.48,0-.01.12-.02.24-.24.28-.2,1.29.58,1.31.66.02.04-.52.7-.24.9-2.99,6.05-12.44,6.82-18.22,1.79-2.26-1.96-3.65-4.1-4.6-6.93-.51-1.52-.37-1.17-.12.12.19.96.35,1.93.6,2.87-.46.96,1.79,3.82-.24,2.39-1.6-4.37-2.87-7.79-2.75-12.6-.45.4-.67.37-1.08.54-.66-.94.3-1.35.48-2.63.05-.36.03-1.36,0-1.79-.02-.31.13-1.42-.18-1.55-.06-.03-1.25-.03-1.31,0-.3.13-.16,1.14-.18,1.43-.08,1.22-.04,3.36,0,4.66.17,6,1.16,11.09,2.75,16.85l-.96.24c-.25-.68-.33-1.45-.72-2.09.04,1.27.62,2.49.6,3.76-.01.57.09,1.03-.18.96-.33-.29-.47-.7-.66-1.08-1.49-2.92-.94-6.45-1.55-9.56-.11-.54-.1-.97-.12-1.02-.06-.13-1.9-1.7-2.39-1.49,0-.12,0-.24,0-.36,2.37.1,1.76,1.64,2.39,1.37-.34-.67-.48-4.12-.72-4.42-.12-.15-1.44-.83-1.67,1.25-.44-.06.04,1.02-1.08.96.12-1.64.21-3.26.24-4.9.02-1.27.03-2.55,0-3.82-.01-.63.05-1.29,0-1.91-.02-.2.06-.87-.06-.96-.05-.04-1.25-.03-1.31,0-.3.13-.13.61-.18.84-.13.65-.04,1.4-.12,2.03-.08.67-.15,1.36-.24,2.03-.35,2.63-.81,5.26-1.19,7.89l-1.67.48c.21-1.54-.35.77-1.19,2.21-2.67,4.54-6.91,7.29-12.19,7.47-.57.02-.85.05-1.43,0-3.86-.3-7.29-2.52-8.48-6.33,1.05.69.55-.39,1.55,0,.29.59.52.88,1.02,1.31.29-.18.02-.24.06-.6.82-.26,1.53,1.4,3.52,2.51,5.65,3.16,11.43.14,14.4-5.08,1.26-2.22,3.22-8.02,3.58-10.51.37-2.53.62-5.14-1.13-4.36-.32.14-.13.81-.18,1.08l-1.19.24c0-.27.1-1.19-.18-1.31l-2.09-.06v-3.11c-2.65-.39-2.39-2.39-.96-4.12.79-.17.39,1.2.48,2.45.21.3.76.15,1.31.18,2.83.15,16.53.13,19.71,0,.31-.01,1.25.36,1.43-.06l.48-2.69c1.44,1.31,1.6,4.21-.96,4.24v3.35h-2.75c.11,2.49,1.12,4.77,2.15,6.99Z"/>
        <g>
          <path class="cls-5" d="m51.86,99.4c.19.51.54,1.55.72,1.91l-.36.24s.01-.09,0-.12c-.04-.11-.26-.72-.3-.72-.12.01.03.36-.18.36.03-1.27-.56-2.49-.6-3.76.38.64.47,1.41.72,2.09Z"/>
          <path class="cls-29" d="m54.84,88.89l-.12.12c-.25-1.29-.39-1.64.12-.12Z"/>
          <path class="cls-26" d="m56.75,72.64c.09.94-.21,1.61.84,1.79l-.18.24c-1.26-.1-8.08,0-8.48-.12-.65-.2-.68-1.77-.36-1.91,2.25.15,6.4-.21,8.18,0Z"/>
          <path class="cls-26" d="m45.17,72.64c-.01.87,1.34,1.6,2.15,1.31-.06.24.12.53-.18.72-1.95-.15-7.11.2-8.18,0,0-.08-.03-.22.06-.24.84-.2,3.17.48,3.17-1.79.99-.01,2-.03,2.99,0Z"/>
          <path class="cls-27" d="m42.18,72.64c0,2.27-2.33,1.59-3.17,1.79-.09.02-.06.16-.06.24-.11-.02-.28-.03-.36-.12.23-.77.56-1.32,1.08-1.91.83-.05,1.68.01,2.51,0Z"/>
          <path class="cls-27" d="m47.32,73.95c-.81.29-2.16-.44-2.15-1.31.7.02,1.39-.02,2.09,0,.38.17.12,1.04.06,1.31Z"/>
          <path class="cls-7" d="m57.59,74.43c-1.05-.18-.75-.85-.84-1.79.17.02.63-.06.72.06l.12,1.73Z"/>
          <path class="cls-6" d="m39.67,72.64c-.52.6-.85,1.14-1.08,1.91-.27-.34-.04-1.39-.12-1.85.09-.12.98-.05,1.19-.06Z"/>
        </g>
      </g>
      <path class="cls-14" d="m64.52,20.79c-.09.06-1.18.49-2.03,1.08-4.43,3.04-6.94,6.43-9.08,11.35-.84.26-2.22,6.64-2.57,6.57-.38-1.25.36-1.58-.9-2.51.17-1.03.41-2.17.72-3.17,1.32-4.33,4-7.51,5.73-10.45.31-.53.78-1.07.96-1.67,1.16-3.93-2.25-1.49-3.64-1.55-.09,0,0-.26-.18-.24,2.46-1.23,4.84-2.26,7.23,0,1.68-1.04,3.2-2.44.9-3.94l-.12-.6c1.79.78,3.17,2.56,3.82,4.36-.01.11-.7.68-.84.78Z"/>
      <path class="cls-18" d="m64.52,20.79c-.16.48.31.56.72.6l1.55,1.43c-3.17.94-8.29,6.81-10.04,9.68-.23.37-.51.83-.72,1.19-.86-.05.09-1.33-.36-2.03,1.99-3.47,4.39-6.63,6.81-9.8.85-.58,1.94-1.01,2.03-1.08Z"/>
      <path class="cls-15" d="m61.53,15.65l.12.6c-1.98-1.29-4.64-.66-6.33.84-.52-.18-1.08-.14-.72.54-.83-.03-1.89,1.34-2.15,2.03-.05.15.16.19.12.36-.01.04-.74.36-.18.66.31.17.55-.26.78-.36.02,0,.11,0,.36-.12.17-.02.09.24.18.24,1.4.06,4.81-2.37,3.64,1.55-1.74-.45-4.44.66-6.33.84.26-2.62,1.95-5.44,4.3-6.69,2.01-1.07,4.11-1.4,6.21-.48Z"/>
      <path class="cls-17" d="m54.84,15.89s-.07.16.48.24c-2.35,1.26-4.04,4.07-4.3,6.69-.03.31-.02.75,0,1.08l-.36-.12c.08-2.48.31-3.67,1.55-5.91,2.29-4.13,2.01-1.8,2.21-1.73.02,0,.31-.25.42-.24Z"/>
      <path class="cls-6" d="m69.18,21.86c-.68.24-1.52.61-2.15.96-.08,0-.18-.02-.24,0l-1.55-1.43c.58.05,3.51-.97,3.94.48Z"/>
      <path class="cls-24" d="m56.4,23.66c-1.73,2.95-4.41,6.13-5.73,10.45-.3.99-.55,2.14-.72,3.17-.23,1.42-.33,2.92-.48,4.36,0,.09.36,1.34-.24,1.55.58,2.5-1.14,5.43,0,7.83-.13,1.07-.55,2.15-.06,2.39.38-.03.46-3.35,1.25-1.79-.86,4.38-.69,4.27-.96,8.3-.08,1.23-.85,4.39,0,4.72.03.25-.02.52,0,.78,1.15.19,3.01-1.48,4-1.25,1.23.27.25,2.01.9,2.15-.03.49.12.99-.18,1.19h-12.78c-.12-.09-.05-1.08-.06-1.31,1.5-.12,3.46-1.98,4.9-2.03.04,0,.13.27.84.06.01-2.14-.17-4.28-.48-6.39.5-.37.42-1.95.48-2.75.29-4.16-.23-8.09-.84-12.19-.3-2.02-.61-3.98-1.08-5.97,1.34-1-1.01-3.92-1.19-4.3-1.92-4.02-2.26-4.94-5.14-8.6,1.45-.06,2.66,1.28,4.12,1.43.88.09,3.73-.11,4.12-.84.02.15-.01.32,0,.48.65,10.89.86,12.63,1.43.36,2.94-.26,2.1-.43,2.15-1.31,0-.12,0-.24,0-.36l.36.12c.01.29,0,.51-.12.78,1.91.46,5.11-2.1,5.5-1.02Z"/>
      <path class="cls-15" d="m42.66,24.13c.18.18.28.3.48.48.22.2.33.4.54.6.12-.34.63-1.13.66-1.31,2.63-.7,2.21-2.9,2.75.72-.39.72-3.25.93-4.12.84-1.46-.16-2.68-1.49-4.12-1.43-.36-.46-.71-.99-1.08-1.43.02-1.13,3.33,1.13,4.9,1.55Z"/>
      <path class="cls-14" d="m48.63,24.97c-.13.18-.11.27-.12.48-.57,12.28-.79,10.54-1.43-.36.89.53.76.33,1.55-.12Z"/>
      <path class="cls-19" d="m44.81,22.46c-.84-1.91-1.86-4.66-3.58-5.97.17-.41-.1-1.39-.24-1.91,1.77,2.39,4.55,4.6,3.82,7.89Z"/>
      <path class="cls-15" d="m50.66,24.13c-.05.88.79,1.06-2.15,1.31,0-.2-.01-.3.12-.48.39-.22,1.24-1.19,2.03-.84Z"/>
      <path class="cls-12" d="m44.33,23.42c.01.13.02.35,0,.48-.03.18-.53.97-.66,1.31-.21-.2-.32-.4-.54-.6.08-.51.13-1.05.24-1.55l.96.36Z"/>
      <g>
        <path class="cls-14" d="m50.54,2.87c1.29,1.58,2.49,3.31,2.99,5.32.2.37.88-.4,1.67-.18.09.11.69,1.43.72,1.55.23,1.05.06,1.43-.12,2.39-.23,1.2-.85,2.61-.96,3.94-.1,0-.4.25-.42.24-.2-.07.08-2.4-2.21,1.73-1.24,2.24-1.47,3.44-1.55,5.91,0,.12,0,.24,0,.36-.8-.35-1.64.62-2.03.84-.8.45-.66.65-1.55.12-.01-.16.02-.33,0-.48-.54-3.62-.12-1.42-2.75-.72.02-.13.01-.34,0-.48,0-.08-.16-.31-.24-.48.44-.33.8.12.72-.48.72-3.29-2.05-5.5-3.82-7.89-.22-.86-.92-2.52-.96-2.75-.53-2.98,1.53-4.9,2.93-3.23.41-.18-1.31-.68,1.49-3.7.03-.03.7-.38.84-.42.21-.4.08-.81.12-.9.67-1.31,1.53-2.45,2.45-3.58.87.95,1.87,1.87,2.69,2.87Z"/>
        <path class="cls-3" d="m47.61,1.91c2.01,5.81,3.44,5.2.48,11.23-.32-5.09-4.32-4.81-4.78.12-2.15-2.63-.99-1.24-.3-2.09.33-.41.82-5.34,4.6-9.26Z"/>
        <path class="cls-10" d="m52.75,10.63c1.97-.49,2.13,1.35,1.19,1.79-1.44.68-2.81-1.39-1.19-1.79Z"/>
        <path class="cls-21" d="m51.2,14.1c.32.14-2.68,3.16-1.37,1.13.13-.2,1.23-1.19,1.37-1.13Z"/>
      </g>
      <path class="cls-15" d="m28.8,30.23c.27.16.53.23.84.12,1.24,1.18,1.08,1.12.84.48,1.83,1.02,3.37,2.41,5.32,3.35.4.31,3.24,3.47,3.52,3.88,1.16,1.67.66,2.83,1.19,2.87-.63,1.2.71,2.96-.96,3.88-2.75-4.88-4.8-7.08-9.8-9.68-2.6-1.35-4.64-2.25-7.65-2.51-2.89-.25-6.39.1-9.08,1.19.36-1.79-2.12-.42-1.55-1.61.26-.55,3.08-2.59,3.76-2.81,1.57-.06,2.2-.5,3.94-.12,1.33-.39,4.92.08,6.45.36,1.02.19,2.16.79,3.17.6Z"/>
      <path class="cls-27" d="m22.11,32.62c0,.23-.05.82-.12.96-.26.55-2.31.41-4.24.96-3.83,1.08-7.34,3.87-9.5,7.17-1.26,1.93-2.23,4.12-2.87,6.33-.19.65-.48,1.3-.6,1.97-.59,3.51-.39,3.8.96,1.25.95-.29,1.63-3.02,1.79-1.19-.69,1.5-1.16,3.09-1.43,4.72-1.68,1.99-1.2,5.32-2.15,5.2-1.23-3.82-1.42-6.64-.96-10.63.61-5.21,2.91-10.8,7.29-13.98.7-.51,1.95-1.23,2.75-1.55,2.69-1.1,6.19-1.45,9.08-1.19Z"/>
      <path class="cls-15" d="m28.8,30.23c-1.01.19-2.15-.41-3.17-.6-1.53-.28-5.12-.75-6.45-.36-1.74-.38-2.37.06-3.94.12-.69.22-3.5,2.26-3.76,2.81-.57,1.19,1.91-.17,1.55,1.61-.8.33-2.05,1.04-2.75,1.55-.57-1-2.62-2.2-3.76-2.51l-.06-.3c3.02-2.14,5.62-4.63,9.26-5.67.97.05,2.51-.43,3.46-.36.33.03,3.12.72,4.18.84,4.51,1.27,4.83,2.52,5.44,2.87Z"/>
      <path class="cls-15" d="m24.97,21.39c2.51.78,3.81,1.68,5.85,3.23-.76.18.11,1.44-.54,1.67-.48.18-3.96-1.58-2.69.48-2.72-1.68-5.49-2.9-8.72-2.99.15-.39-.68-.09-.42-.48.15-.22,4.29-1.86,4.84-2.39.58.11,1.12.31,1.67.48Z"/>
      <path class="cls-15" d="m2.99,49.34c-.47,3.99-.27,6.81.96,10.63.42,1.32,1.04,2.71,1.67,3.94,2.5,4.88,3.84,5.12,6.09,7.41-.05-.02-.87-.1-1.02-.12-.14-.02-.19-.35-.24-.36-.83-.16-.05,1.31-2.57-1.19-4.71-4.69-5.99-10.6-6.45-16.97,1.86-1.3.92-2.66,1.55-3.35Z"/>
      <path class="cls-24" d="m18.88,23.77c3.23.09,6,1.31,8.72,2.99.27.44,1.24,1.15,2.15,2.63.29.47.52.91.72,1.43.25.64.4.7-.84-.48-4.28-4.09-7.79-5.86-13.92-5.5-.63.04-3.4.84-2.03-.12,1.15-.81,3.79-.99,5.2-.96Z"/>
      <path class="cls-19" d="m9.56,25.45c-.57-.4-.83.9-1.31.12,1.12-1.06,2.79-2.35,4.18-2.99.76-.35,3.79-1.71,3.82-.42.04,1.35-3.22,1.08-6.69,3.29Z"/>
      <path class="cls-17" d="m26.41,20.07c.07.95.06,1.09-.84,1.19-.3.03-.6-.09-.6.12-.56-.17-1.1-.37-1.67-.48-1.53-.29-2.74-.4-4.3-.36-.92-.37,1.67-.67,2.81-.72,1.54-.06,3.06.2,4.6.24Z"/>
      <path class="cls-9" d="m12.43,21.98v.6c-1.39.64-3.07,1.93-4.18,2.99-.53.51-1.09.97-1.55,1.55l.6-1.55c1.66-1.69,2.93-2.65,5.14-3.58Z"/>
      <path class="cls-23" d="m9.56,25.45c-2.96,1.88-4.6,4.98-2.87,1.67.46-.58,1.02-1.05,1.55-1.55.49.78.75-.52,1.31-.12Z"/>
      <path class="cls-18" d="m30.59,20.79c.01.06.22.23.24.24.96,1.5,2.57,2.88,3.82,4.3-.49-.33-.93-.49-.6.3.39.93,2.73,1.67,2.27,2.99l-2.15-1.61c-2.19-2.17-5.69-4.7-8.6-5.73.9-.1.9-.24.84-1.19l4.18.72Z"/>
      <path class="cls-26" d="m41.94,103.58c-.6,2.13-2.01-2.26-3.23-4.18.65-.04.54-1.1.24-1.55.15-.65.43-1.27.6-1.91.14.13.39.05.48-.06.19-.25,1.84-4.24,2.63-5.32-.01.1.1,1.63,0,2.09-.54,3.7-3.1,6.49-2.03,8.36-.78.36.54,1.26.72,2.75l.18.18c.12-.15.26-.25.42-.36Z"/>
      <path class="cls-26" d="m45.64,90.2c-.47,4.25-1.82,8.33-2.99,12.43-.09.4-.39.73-.72.96l-.24-1.02c.6-4,2.05-7.74,3.58-11.47-.31-.26.04-.78.36-.9Z"/>
      <path class="cls-13" d="m44.21,101.19c-.06.51-.24,1.03-.06,1.55.22-.44.44-.88.66-1.31.43-.1.29.2.6.84.78,1.6,1.67,1.65.54,2.63l-1.97-.24c-.2-1.09-.01-2.04-.12-3.11.11-.24.13-.42.36-.36Z"/>
      <path class="cls-15" d="m44.69,98.45c.03-.27.03-.62-.12-.6.46-1.79.14-1.03.36-.66.06.09,1.18.79-.24,1.25Z"/>
      <path class="cls-21" d="m38.71,99.4l-.12-.54c.17-.3.28-.68.36-1.02.3.45.41,1.52-.24,1.55Z"/>
      <path class="cls-27" d="m46.6,102.63c.07.35.38.67.36,1.08-.94,1.96-.9,1.9-.3,4.18-1.36-.58-2.41-1.73-2.69-3.23l1.97.24c1.13-.97.24-1.03-.54-2.63.39.07,1,.88,1.19.36Z"/>
      <path class="cls-15" d="m50.18,106.69c-.08.86-1.04,1.2-1.91,1.25.14-2.04-.18-2.18,1.67-3.17.16.7.31,1.14.24,1.91Z"/>
      <path class="cls-21" d="m48.99,97.97l-.48.24c-.01-.2,0-.4,0-.6-.08-1.84-.28-4.79.3-4.66.26.06.13,4.5.18,5.02Z"/>
      <path class="cls-27" d="m86.02,35.84c5.55,3.97,7.23,9.95,7.41,16.49.01.54.02,1.01,0,1.55h-.12c-.02-.62.11-2.43-.72-.9-.65,1.2.02,5.21-1.79,5.44.62-2.01-.18-4.06.24-6.09-.13-2.09-.56-4.37-1.31-6.33-.98-2.56-2.53-4.53-4.42-6.45-6.67-6.77-11.83-5.58-12.48-5.85-.15-.06-.66-.83-.78-1.08,5.03-.52,9.81.25,13.98,3.23Z"/>
      <path class="cls-21" d="m66.67,71.56c-.1-.07-.22-.14-.36-.12-1.64-2.16-5.43-4.95-3.23-10.63.54,1.46-.16,2.3.48,4.12.92,2.62,3.8,4.7,3.82,5.02,0,.09-.57.64-.72,1.61Z"/>
      <g>
        <path class="cls-1" d="m73.06,12.31c2.12-.39,1.93,2.65-.24,2.15-1.1-.26-.81-1.96.24-2.15Z"/>
        <path class="cls-1" d="m73.06,12.78c1.44-.48,1.26,1.71,0,1.31-.54-.17-.54-1.13,0-1.31Z"/>
      </g>
      <path class="cls-28" d="m81.25,43.73c2.16,1.49.42,2.06.72,2.69.14.3,3.54.68,5.26,3.88-2.09-.06-5.42-1.19-7.11-.84l-.54-.3c-.27-.51-1.06-1.94-1.31-2.21.07-.51,1.29-.5,1.31-.78.05-.49-4.92-4-8.9-2.81-1.31.39.31.48.66.6-.42.39-1.94.11-3.64.48-1.1.24-1.82.75-2.75,1.19-.02.01-.24-.25-.48-.12-.18.1-1.23.94-1.25,1.02-.05.17.93.68-1.55,1.25.15-.19.24-.39.36-.6,1.44-1.54,2.36-2.53,4.24-3.58,3.55-.66,6.01-2.05,9.92-1.55,1.53.2,3.79.78,5.08,1.67Z"/>
      <path class="cls-15" d="m90.33,58.54c-.02,1.54-.07,1.98-.48,3.46-.42,1.53-1.49,3.6-2.63,4.72-1.64,1.62.29-.88.96-3.35.97-3.61.83-9.75-.96-13.08-1.72-3.21-5.11-3.58-5.26-3.88-.3-.62,1.44-1.2-.72-2.69.05-.78.13-.46.6-.96,5.63,3.36,8.57,9.28,8.48,15.77Z"/>
      <path class="cls-15" d="m78.26,46.95c-1.25-1.35-5.04-2.35-6.93-2.99-.35-.12-1.96-.21-.66-.6,3.98-1.2,8.95,2.32,8.9,2.81-.03.28-1.24.27-1.31.78Z"/>
      <path class="cls-26" d="m93.31,53.88c.13,3.7-.85,4.19-1.31,5.2-.52,1.13-1.17,3.49-2.15,2.93.41-1.48.46-1.93.48-3.46.19,0,.27-.09.48-.12,1.81-.23,1.14-4.23,1.79-5.44.83-1.53.69.28.72.9Z"/>
      <path class="cls-25" d="m82.56,53.4c.11.21.74.96.54,1.19-2.06.2-3.42-1.32-4.6-1.19-.33-.72-.92-1.39-.78-1.79,1.8-.07,3.31,1,4.84,1.79Z"/>
      <g>
        <path class="cls-26" d="m78.26,46.95c.25.27,1.04,1.7,1.31,2.21l.54.3c1.69-.35,5.02.78,7.11.84,1.78,3.33,1.92,9.48.96,13.08-.66,2.47-2.6,4.96-.96,3.35,1.14-1.12,2.21-3.19,2.63-4.72.98.56,1.63-1.8,2.15-2.93.46-1,1.45-1.5,1.31-5.2h.12c-.24,7.65-5.03,16.23-12.37,19.24-5.28,2.16-9.79,1.75-14.4-1.55.14-.98.72-1.52.72-1.61-.03-.32-2.91-2.4-3.82-5.02-.64-1.82.06-2.66-.48-4.12.08-.21.14-.29.24-.48l1.19.36c.04,1.5.76,2.89,1.08,4.36.45.97.67.84,1.08,1.25,2.73,2.77,7.42,3.01,9.8-.36.17.81,1.98-1.85,2.15-2.33.5-1.39.39-2.48.12-3.88.47-.44.81,1.2,1.61,2.03.71-2.95-.66-5.77-1.85-8.36,1.18-.13,2.54,1.39,4.6,1.19.2-.24-.43-.99-.54-1.19-.82-1.59-1.76-2.95-3.52-3.58-1.01-.36-4.85-1.21-4.6.42.09.59,3.46,3.43,3.64,5.32-3.02-3.31-6.63-4.71-11.11-4.54,3.41-1.02,1.63-3.81.36-4.06-2.36-.47-6.92,3.52-8.36,5.38-.49-.31,1.97-4.27,2.69-4.54,2.48-.58,1.5-1.08,1.55-1.25.02-.08,1.07-.92,1.25-1.02.24-.13.46.13.48.12.93-.45,1.64-.96,2.75-1.19,1.7-.36,3.22-.09,3.64-.48,1.88.64,5.68,1.64,6.93,2.99Z"/>
        <path class="cls-21" d="m70.31,71.8c2.12.46,4.21.77,6.39.78-1.64,1.73-5.46,1.59-6.39-.78Z"/>
      </g>
      <path class="cls-28" d="m64.52,60.69l-1.19-.36c.35-.68.59-1.57,1.49-1.79.09.06-.34.65-.3,2.15Z"/>
      <path class="cls-13" d="m39.55,44.8c.35.63.55,1.37,1.08,1.91,0,.04,0,.08,0,.12l.12.24c1.22,1.89,2.25,3.85,2.99,5.97.51,1.48,1.56,5.54,1.91,7.17-1.85-2.76-2.66,2.44-4.3,2.87-.41-5.4-2.21-12.08-6.57-15.65-.15-.41-.31-.07-.6-.24-6.84-9.22-19.91-8.61-25.69,1.43-.35-.03-.74.96-.96,1.43-.16-1.82-.84.91-1.79,1.19,2.86-5.41,6.71-10.92,13.32-11.83,5.61-.77,13.17,2.18,17.02,6.33,1.76,1.89,2.81,4.17,3.94,6.45.19.38,2.3,5.75,2.15,2.81-.02-.33-.66-2.46-.84-3.05-2.62-8.69-5.98-10.35-11.59-16.85,5,2.59,7.05,4.8,9.8,9.68Z"/>
      <path class="cls-13" d="m91.04,52.33c-.42,2.04.38,4.08-.24,6.09-.21.03-.29.12-.48.12.09-6.49-2.85-12.41-8.48-15.77-6.15-3.67-13.47-2.65-18.88,1.79-1.54,1.27-3.07,2.76-4.18,4.42-.89.07.42-.57.36-.66-.83-1.09-2.07,3.37-4.06,4.12,4.15-7.26,9.89-12.94,18.82-13.14,12.83-.28,16.2,12.18,16.91,13.08.1.13.1-.05.24-.06Z"/>
      <path class="cls-27" d="m58.79,48.98c-2.22,3.33-3.96,8.82-4.3,12.78-.46-.1-.1.69-.3.84-.07.05-.99-.09-1.67.12-.93.29-2.15,1.81-3.05,1.67-.07-3.62,1.37-8.74,2.63-12.19.76-.18-.02,1.26.3,2.63l2.03-1.43c.53-.41.39-.63.42-.72.14,0,.18-.14.24-.24,1.99-.75,3.23-5.21,4.06-4.12.06.08-1.25.72-.36.66Z"/>
      <path class="cls-15" d="m81.84,42.77c-.47.5-.55.17-.6.96-1.29-.89-3.55-1.48-5.08-1.67-3.91-.5-6.37.89-9.92,1.55-1.89,1.05-2.8,2.04-4.24,3.58.02-.03,0-.55.12-.78.29-.61.98-1.11.84-1.85,5.41-4.44,12.72-5.47,18.88-1.79Z"/>
      <path class="cls-26" d="m46.24,64.16c-1.44.05-3.4,1.91-4.9,2.03-.03-.67.03-1.36,0-2.03,1.13.13,2.53-1.51,3.52-2.15.51-.33.86-.02,1.02-.72.18.95.24,1.91.36,2.87Z"/>
      <path class="cls-27" d="m45.64,60.21c.08.36.17.72.24,1.08-.15.7-.51.39-1.02.72-1,.64-2.4,2.28-3.52,2.15-.02-.36.03-.72,0-1.08,1.64-.43,2.45-5.63,4.3-2.87Z"/>
      <path class="cls-26" d="m54.48,61.77c-.13,1.53-.02,3.02-.12,4.54-.65-.14.33-1.88-.9-2.15-.99-.22-2.85,1.44-4,1.25-.02-.26.03-.52,0-.78,0-.08,0-.16,0-.24.9.13,2.12-1.38,3.05-1.67.68-.21,1.6-.07,1.67-.12.2-.14-.16-.93.3-.84Z"/>
      <g>
        <path class="cls-14" d="m62.97,44.56c.14.75-.54,1.24-.84,1.85-.11.23-.1.74-.12.78-.12.21-.21.41-.36.6-.72.27-3.18,4.23-2.69,4.54,1.45-1.86,6.01-5.84,8.36-5.38,1.27.25,3.05,3.04-.36,4.06,4.48-.17,8.09,1.23,11.11,4.54-.19-1.88-3.55-4.72-3.64-5.32-.25-1.63,3.59-.78,4.6-.42,1.77.63,2.7,2,3.52,3.58-1.52-.79-3.04-1.86-4.84-1.79-.14.4.45,1.08.78,1.79,1.19,2.59,2.56,5.42,1.85,8.36-.8-.84-1.14-2.47-1.61-2.03-.06-.34.13-.4.12-.42-.25-.88-1.11-2.11-1.43-.54-2.01-6.88-13.21-9.2-18.76-1.37-2.28,3.22-3.43,9.77-1.97,10.45.88.15,1.85.11,2.69.48-4.07.5-17.28-.26-19.71.12-.15.03-.15-.34-.12-.6.59-4.76-1.16-10.38-5.08-13.38-2.03-1.56-2.15-1.03-2.27-1.08-.68-.25-1.35-.67-2.39-.84-11.6-1.81-14.25,12.25-7.59,15.29-.28.32-.76.03-1.08-.12-2.77-1.33-3.69-5.23-4.12-7.89-1.21,1.45-1.24,3.62-1.49,1.61-.28-2.22,2.44-8.2,4.18-9.92-2.16-.19-4.2.95-5.79,2.33.9-5.87,9.09-4.33,9.14-3.76-1.46,1.41-3.08,2.78-4.42,4.3-2.78,3.16-1.07,1.41.54.18,2.54-1.95,6.02-4.17,9.32-3.46-5.04-1.88-1.86-4.99,3.11-2.99,1.98.8,4.7,3.39,5.62,5.38l-2.45-6.09c4.36,3.57,6.16,10.25,6.57,15.65.03.35-.02.72,0,1.08.03.67-.03,1.36,0,2.03.01.23-.06,1.23.06,1.31h12.78c.3-.21.15-.7.18-1.19.09-1.52-.01-3.01.12-4.54.34-3.97,2.08-9.46,4.3-12.78,1.11-1.66,2.64-3.15,4.18-4.42Z"/>
        <path class="cls-26" d="m29.69,51.01c1.07-.24,2.07.4,2.81,1.13l-3.05-.9c-.15-.04.22-.24.24-.24Z"/>
      </g>
      <path class="cls-26" d="m57.47,83.87c1.38,2.57,4.76,5.59,7.53,6.57-.7.42-2.12-1.13-2.03.12-2.18-1.27-2.81-2.12-4.42-3.82-.1-.11-.21-.33-.6-.72-.03-.03.1-.16-.54-.72-.03-.02-.28.23-.72-.12-1.22-.98-2.53-4.06-1.73-4.42.42.62,1.91,2.5,2.51,3.11Z"/>
      <path class="cls-27" d="m65,90.44c3.29,1.17,7.45-.09,4.24,1.31-2.27,1-4.29-.03-6.27-1.19-.09-1.25,1.33.3,2.03-.12Z"/>
      <path class="cls-21" d="m55.92,79.93c.4,1.14,1.02,2.94,1.55,3.94-.6-.61-2.09-2.49-2.51-3.11-.54-.8.25-.16,0-.84.27.07.65-.2.96,0Z"/>
      <path class="cls-13" d="m73,90.92c-.61.59-1.18,1.21-1.79,1.79-.49.14-1.24.58-1.31.6-1.3.32-2.82.81-4.06.24,2.45.44,5.74-1.08,7.05-3.23l.12.6Z"/>
      <path class="cls-22" d="m73.48,78.73c1.46,1.8,2.79,4.03,3.23,6.33.24,1.26.34,2.52.24,3.82-.51-.01-.14-1.17-.6-1.31.02-.55-.07-.85-.12-1.31-.34-3.17-.39-2.17-1.49-.24-.02-2.57-.96-4.11-3.29-5.2.51-.52.89-1.32,1.31-1.85.07-.08-.09-.56.72-.24Z"/>
      <path class="cls-26" d="m76.35,87.57c-.07,1.65-.97,3.47-1.19,4.3-.18-.73-2.44.57-3.29.84-.42.13-.63,0-.66,0,.62-.58,1.19-1.2,1.79-1.79,1.76-1.71,2.3-2.02,3.23-4.66.05.47.14.77.12,1.31Z"/>
      <path class="cls-18" d="m58.19,70.85c-3.1-.22-17.3.15-18.7-.12-1.43-.27-.42-1.54.06-1.67.87-.24,17.23-.23,18.1,0,.71.19.72,1.25.54,1.79Z"/>
      <path class="cls-15" d="m34.17,47.19c-1.21-.73-8.29-4.81-8.9-5.02-.29-.1-1.59-.45-1.79-.48-1.54-.2-6.56.57-8,1.19-.14.06-2.39,1.46-2.51,1.55-1.71,1.35-3.26,4.07-4,6.09-.5.01.58-.76-1.08-.84.18-.38.39-.71.6-1.08,5.77-10.04,18.85-10.65,25.69-1.43Z"/>
      <path class="cls-14" d="m8.97,50.54c-1.86,5.05-2.42,14.67,2.03,18.52-2.66-.73-4.47-5.1-4.9-7.77-.62-3.86.11-8.05,1.79-11.59,1.66.08.57.85,1.08.84Z"/>
      <path class="cls-26" d="m11,69.05c1.55,1.34,4.22,2.33,6.21,2.75-.34,1.03.03,1.33-.12,2.15-2.36-.63-3.96-2.03-5.38-2.63-2.25-2.29-3.59-2.53-6.09-7.41,1.7.1.02-1.61.48-2.63.43,2.67,2.24,7.03,4.9,7.77Z"/>
      <path class="cls-24" d="m26.41,71.32c.84-.1-1.41,1.61-1.85,1.91-.88.6-2.17.99-1.85,1.19-1.72.18-3.94-.03-5.62-.48.15-.82-.22-1.12.12-2.15,3.03.63,6.28.81,9.2-.48Z"/>
      <g>
        <path class="cls-4" d="m34.17,47.19c.28.17.45-.17.6.24l2.45,6.09c-.91-1.98-3.64-4.58-5.62-5.38-4.96-2-8.15,1.11-3.11,2.99-3.3-.71-6.78,1.51-9.32,3.46-1.61,1.23-3.32,2.98-.54-.18,1.34-1.52,2.96-2.89,4.42-4.3-.05-.57-8.24-2.11-9.14,3.76,1.6-1.38,3.64-2.52,5.79-2.33-1.74,1.72-4.46,7.7-4.18,9.92.26,2.01.29-.16,1.49-1.61.43,2.66,1.35,6.55,4.12,7.89.15.68-.37.67-.36.78.04.43,2.38.84,2.39-.3,1.73.34,3.67.1,5.14-.96,1.53,1,2.75-1.38,2.99-2.63.02-.13.11-1.29.12-1.55.04-1.11-.05-2.13-.24-3.23,1.66,1.34,2.16,2.23,2.03,4.3-1.12,1.07-1.83,2.84-2.87,4.06-.87,1.04-2.71,2.56-3.94,3.11-2.92,1.29-6.17,1.11-9.2.48-1.99-.41-4.67-1.41-6.21-2.75-4.45-3.85-3.89-13.47-2.03-18.52.75-2.02,2.3-4.74,4-6.09.12-.09,2.37-1.49,2.51-1.55,1.45-.63,6.47-1.4,8-1.19.2.03,1.5.38,1.79.48.61.2,7.7,4.29,8.9,5.02Z"/>
        <path class="cls-14" d="m22.88,43.13c.54-.03,1.94.12,1.97.78.03.61-5.85,1.61-7.59,4.24l-1.85-1.97c2.48-.55,4.95-2.89,7.47-3.05Z"/>
      </g>
      <path class="cls-26" d="m30.47,70.25c-1.55,1.72-3.91,3.38-6.21,3.94-.23.06-1.25.21-1.55.24-.32-.2.97-.6,1.85-1.19.44-.3,2.69-2.01,1.85-1.91,1.23-.54,3.07-2.07,3.94-3.11l.12,2.03Z"/>
      <path class="cls-21" d="m33.22,64.16c-.16,2.66-1.03,4.18-2.75,6.09l-.12-2.03c1.03-1.22,1.74-2.99,2.87-4.06Z"/>
      <path class="cls-13" d="m27.6,81.72c.02.31.61,1.44.18,1.55-1.64-.82-4,.32-4.96,1.79-.92.89-.84,1.1-1.08-1.08.47-1.4,1.19-2.39,2.63-2.93-.61-.48-.74-1.17-.96-1.85l4.18,2.51Z"/>
      <path class="cls-13" d="m38.36,84.94c-2.11,3.97-8.2,9.02-12.54,5.97,3.08.57,6.04-.58,8.48-2.39,1.34-.99,2.42-2.21,3.35-3.58.45.34.9-.64.72,0Z"/>
      <path class="cls-18" d="m23.42,79.21c.22.68.35,1.37.96,1.85-1.43.54-2.16,1.52-2.63,2.93-.13.4-.1.68-.18,1.08-.36.3-.78-1.52-1.73-.78-1.03.79-.64,4.52-1.19,3.29.03-.86.17-1.45.36-2.27.7-3.11,2.59-4.75,3.94-7.53.38.4.32.94.48,1.43Z"/>
      <path class="cls-27" d="m46.6,102.63c-.19.52-.81-.29-1.19-.36-.31-.64-.17-.93-.6-.84.21-.42.44-.88.6-1.31.62.14.75.99.96,1.49.05.12.31,0,.36.12.02.04-.15.73-.12.9Z"/>
      <path class="cls-15" d="m87.94,33.93c.14.52.37.98.3,1.55l-2.51-1.08.3,1.43c-4.16-2.97-8.95-3.75-13.98-3.23-2.96.31-5.24,1.24-7.77,2.75-4.02,2.4-7.04,5.65-9.2,9.8-.85-.13-.13-1.67-.12-2.09.01-.35-.28-.54-.24-.84.45-3.77,3.08-9.31,6.15-11.65,2.85-2.17,9.72-3.12,13.26-3.23,4.29-.13,10.12.76,12.72,4.6.61.9.77,1.98,1.08,1.97Z"/>
      <path class="cls-14" d="m87.94,33.93c-.31,0-.47-1.08-1.08-1.97-2.6-3.84-8.44-4.73-12.72-4.6-3.54.11-10.42,1.06-13.26,3.23-3.08,2.34-5.7,7.88-6.15,11.65-.04.3.25.49.24.84-.01.42-.73,1.96.12,2.09-.41.79-.8,1.89-1.19,2.75-.99.66.11.21-.48-1.25.21-.14.74-2.49.72-2.63,0-.06-.72-.88-.78-.9-.4-.1-.35.43-.48.48-.12.05-.52-.33-.54-.36.47-1.76.81-2.75,1.43-4.42,1.25.99-.88,1.94-.06,2.63.46.38,2.85-6.07,3.17-6.63,3.4-5.92,8.18-6.91,14.52-7.71,5.8-.89,14.76,0,16.55,6.81Z"/>
      <path class="cls-6" d="m56.04,33.69c-.91,1.65-1.61,3.38-2.27,5.14-.62,1.67-.96,2.66-1.43,4.42-.28-.55.35-2.07.36-2.21.05-.95-.16-1.92-.12-2.87.73-2.33,1.9-4.41,3.11-6.51.45.71-.51,1.98.36,2.03Z"/>
      <path class="cls-27" d="m67.03,22.82c-1.07.58-4.33,3.13-5.32,4.06-1.83,1.72-3.23,3.81-4.96,5.62,1.75-2.87,6.87-8.74,10.04-9.68.06-.02.16,0,.24,0Z"/>
      <g>
        <path class="cls-14" d="m91.88,64.52c-.4.1.7-1.73.84-2.09,1.09-2.91,1.78-6.23,1.91-9.32-.08-.27-.86-.62-1.19-.78-.18-6.54-1.86-12.52-7.41-16.49l-.3-1.43,2.51,1.08c.07-.57-.16-1.03-.3-1.55-1.78-6.81-10.74-7.7-16.55-6.81-6.33.8-11.12,1.78-14.52,7.71-.32.56-2.71,7.01-3.17,6.63-.82-.69,1.31-1.64.06-2.63.66-1.76,1.36-3.49,2.27-5.14.2-.37.49-.83.72-1.19,1.73-1.8,3.13-3.89,4.96-5.62.99-.93,4.25-3.48,5.32-4.06.63-.35,1.47-.71,2.15-.96,8.6-3.09,19.41.39,23.42,8.9,2.32,4.93,2.62,12.5,2.51,17.92-.12,5.49-.77,10.86-3.23,15.83Z"/>
        <path class="cls-24" d="m77.84,24.73c1.91-.36,4.98.51,6.69,1.43.8.43,4.92,3.62,5.2,4.24.81,1.82-1.86-.95-3.17-1.85-1.76-1.22-3.89-2.43-5.97-2.99-.87-.23-4.5-.51-2.75-.84Z"/>
        <path class="cls-15" d="m72.29,23.42c.37.05,2.07-.3,1.02-.48-.41-.07-1.06.04-1.37.36l-.12-.18c.12-.31,2.18-.59,2.09.06.47-.23,5.75-.61,4.9.36-.74.15-1.35.54-2.15.6-.65.05-4.21-.18-4.36-.72Z"/>
        <path class="cls-26" d="m72.29,23.42s.05-.18-.36-.12c.31-.32.97-.43,1.37-.36,1.06.17-.64.53-1.02.48Z"/>
        <path class="cls-7" d="m69.36,24.61c1.73-.37,1.51.82-.42.18.16-.01.39-.17.42-.18Z"/>
      </g>
      <path class="cls-5" d="m55.68,31.66c-1.21,2.1-2.38,4.18-3.11,6.51-.05.95.17,1.91.12,2.87,0,.14-.64,1.66-.36,2.21-.51,1.91-.9,3.92-1.31,5.85-.1.45-.12.34-.12.36-.18-1.4-.83,1.13-1.55,1.19.82-6.58,1.36-11.24,4.06-17.44,2.14-4.92,4.65-8.31,9.08-11.35-2.42,3.17-4.82,6.33-6.81,9.8Z"/>
      <path class="cls-12" d="m61.65,16.25c2.3,1.5.78,2.9-.9,3.94-2.39-2.26-4.76-1.23-7.23,0-.25.12-.34.11-.36.12.36-1.06,1.34-2.51,2.15-3.23,1.69-1.49,4.35-2.13,6.33-.84Z"/>
      <path class="cls-15" d="m53.41,33.21c-2.7,6.2-3.24,10.86-4.06,17.44,0,.02-.06-.12-.12.36-1.14-2.4.58-5.32,0-7.83.6-.22.23-1.46.24-1.55.15-1.44.25-2.94.48-4.36,1.26.93.52,1.25.9,2.51.35.07,1.73-6.31,2.57-6.57Z"/>
      <path class="cls-15" d="m57.35,21.98c-.18.6-.64,1.14-.96,1.67-.38-1.08-3.58,1.47-5.5,1.02.12-.27.13-.48.12-.78-.02-.33-.03-.76,0-1.08,1.89-.18,4.59-1.29,6.33-.84Z"/>
      <path class="cls-14" d="m55.32,17.08c-.81.72-1.79,2.17-2.15,3.23-.22.1-.46.52-.78.36-.56-.3.17-.61.18-.66.04-.16-.17-.21-.12-.36.26-.69,1.32-2.06,2.15-2.03-.36-.68.2-.72.72-.54Z"/>
      <path class="cls-15" d="m46,54.84c.18.94.47,2.11.6,2.99.31,2.11.49,4.25.48,6.39-.7.21-.79-.06-.84-.06-.12-.95-.18-1.92-.36-2.87-.07-.36-.16-.72-.24-1.08-.35-1.62-1.4-5.68-1.91-7.17.75.93,1.35-.43,1.43-1.13,0-.08-.24-.03-.24-.12,0-.09.25-.03.24-.12-.05-.73-.95-2.51-.72-3.29.58,2.13,1.13,4.28,1.55,6.45Z"/>
      <path class="cls-15" d="m53.17,49.58c-.37.89-.74,1.72-1.08,2.63-1.26,3.44-2.7,8.56-2.63,12.19,0,.08,0,.16,0,.24-.85-.33-.08-3.49,0-4.72.26-4.04.09-3.92.96-8.3.14-.72.33-1.43.48-2.15,0-.02.02.09.12-.36.57.39-.67,3.57.54,3.46.32-.03,1.06-2.94,1.61-2.99Z"/>
      <path class="cls-15" d="m46.24,42.89c.6,4.1,1.12,8.02.84,12.19-.24-.41-.18-.88-.24-1.31-.51-3.81-1.01-6.77-1.91-10.51.74.28.77-.6,1.31-.36Z"/>
      <path class="cls-26" d="m46.84,53.76c.06.44,0,.9.24,1.31-.05.8.02,2.38-.48,2.75-.13-.88-.42-2.05-.6-2.99.3-.4.16-.86.12-1.31.75-.61.23.23.72.24Z"/>
      <path class="cls-26" d="m50.9,49.46c-.15.72-.34,1.43-.48,2.15-.8-1.55-.88,1.76-1.25,1.79-.49-.24-.07-1.32.06-2.39.06-.48.12-.34.12-.36.73-.06,1.37-2.6,1.55-1.19Z"/>
      <path class="cls-13" d="m41.94,34.05c.82,2.07.56,2.67.6,2.81.71,2.63,1.82,5.21,2.39,7.89.59,2.81.96,5.92,1.19,8.78.04.45.18.92-.12,1.31-.42-2.17-.97-4.32-1.55-6.45-.22-.79-.48-1.6-.72-2.39.61-.31-.03-1.2-.24-2.03.72-.74.09-.99,0-1.43-1.1-5.37-2.37-8.51-5.5-13.02-1.14-1.64-2.04-2.7-3.35-4.18-1.25-1.42-2.87-2.8-3.82-4.3,5.28,2.33,8.86,7.95,11.11,13.02Z"/>
      <path class="cls-15" d="m39.07,20.67c1.62,1.15,2.24,2.1,3.58,3.46-1.57-.43-4.88-2.68-4.9-1.55-.59-.71-2.31-1.83-2.39-2.75.34-.06.34-.3,1.02-.24.87.08,2.72,1.71,2.69,1.08Z"/>
      <path class="cls-24" d="m44.93,43.25c.9,3.75,1.41,6.71,1.91,10.51-.48,0,.03-.85-.72-.24-.23-2.86-.6-5.98-1.19-8.78-.57-2.68-1.68-5.26-2.39-7.89-.04-.14.22-.74-.6-2.81,1.47,3.31,2.15,5.7,2.99,9.2Z"/>
      <g>
        <path class="cls-14" d="m41.22,16.49c1.72,1.31,2.75,4.07,3.58,5.97.08.59-.28.15-.72.48-.6-1.3-.5-.86-.72.12-.11.5-.16,1.04-.24,1.55-.2-.18-.3-.3-.48-.48-1.34-1.37-1.96-2.31-3.58-3.46-.51-.37-3.85-2.59-3.7-.84.08.92,1.8,2.04,2.39,2.75.37.44.71.97,1.08,1.43,2.88,3.67,3.21,4.58,5.14,8.6.43,1.44.85,2.84,1.19,4.3.47,1.99.78,3.96,1.08,5.97-.54-.25-.57.64-1.31.36-.84-3.49-1.52-5.89-2.99-9.2-2.25-5.07-5.83-10.69-11.11-13.02-.02,0-.23-.18-.24-.24.39-5.42,6.58-7.39,10.63-4.3Z"/>
        <g>
          <path class="cls-8" d="m44.09,22.94c.08.17.23.4.24.48l-.96-.36c.22-.98.11-1.42.72-.12Z"/>
          <path class="cls-27" d="m45.17,36.92c-.34-1.46-.77-2.87-1.19-4.3.18.38,2.53,3.3,1.19,4.3Z"/>
          <path class="cls-20" d="m40.98,18.76c-.81.1-2.2-.73-1.79.12-.84-.47-2.6-.91-3.52-.72-1.82.38-1.07,2.96-2.57,1.25-1.98-2.25,2.04-4.02,4.36-3.52,1.45.31,2.74,1.7,3.52,2.87Z"/>
          <path class="cls-10" d="m40.98,18.76c1.8,2.68,1.66,4.94.84,3.88-.26-.33-.53-2.59-2.63-3.76-.41-.85.98-.02,1.79-.12Z"/>
          <path class="cls-14" d="m39.07,20.67c.03.63-1.82-.99-2.69-1.08-.68-.06-.67.18-1.02.24-.15-1.76,3.19.47,3.7.84Z"/>
        </g>
      </g>
      <path class="cls-18" d="m29.75,35.12c5.61,6.5,8.97,8.16,11.59,16.85-.56,1.02-.46.74-1.31.24-1.13-2.29-2.19-4.56-3.94-6.45-.2-1.75-1.16-1.83-1.25-1.91-1.01-.96-.91-.67-.96-.72-.25-.23-.66-.95-1.31-1.43-1.79-1.34-5.69-2.77-7.89-3.11-6.85-1.06-11.52.94-16.07,5.91-1.04,1.14-2.42,3.41-3.23,3.52.64-2.21,1.6-4.4,2.87-6.33.27.7,1.29-.71,2.69-1.67,2.21-1.53,4.63-2.73,7.17-3.58,2.32-.54,5.13-.33,3.88-2.87.06-.14.13-.72.12-.96,3,.26,5.05,1.16,7.65,2.51Z"/>
      <path class="cls-15" d="m38.12,32.5s.16.06.36.36c.43.67.82,1.32,1.19,2.03,1.08,2.07,1.63,3.82,2.39,5.97-.84-.01-.06-.28-.42-.6-.86-.76-.29,1.6-.9,2.21.8.94.12,1.01.12,1.08-.02.43.16,1.04.12,2.03-.02.46-.36,1.08-.36,1.13-.52-.54-.72-1.28-1.08-1.91,1.67-.92.32-2.68.96-3.88-.53-.04-.04-1.2-1.19-2.87-.29-.41-3.12-3.57-3.52-3.88-1.95-.93-3.49-2.32-5.32-3.35-.2-.52-.43-.96-.72-1.43,2.04-1.23,2.88,1.79,4.12.84.68.49,4.34,4.2,4,2.21l.24.06Z"/>
      <path class="cls-6" d="m36.09,45.76c-3.86-4.16-11.42-7.11-17.02-6.33-6.61.91-10.46,6.41-13.32,11.83-1.34,2.54-1.54,2.26-.96-1.25.11-.67.41-1.32.6-1.97.8-.12,2.19-2.39,3.23-3.52,4.55-4.98,9.21-6.97,16.07-5.91,2.2.34,6.1,1.77,7.89,3.11.65.49,1.06,1.21,1.31,1.43.05.04-.05-.25.96.72.09.09,1.06.17,1.25,1.91Z"/>
      <path class="cls-18" d="m8.25,41.7c2.16-3.3,5.67-6.09,9.5-7.17,1.93-.54,3.98-.4,4.24-.96,1.24,2.53-1.57,2.33-3.88,2.87-2.54.86-4.96,2.06-7.17,3.58-1.4.96-2.42,2.38-2.69,1.67Z"/>
      <path class="cls-27" d="m8.49,48.63c-.21.36-.42.7-.6,1.08-1.68,3.54-2.42,7.72-1.79,11.59-.46,1.02,1.22,2.73-.48,2.63-.63-1.24-1.25-2.62-1.67-3.94.95.12.47-3.21,2.15-5.2.28-1.63.74-3.22,1.43-4.72.22-.48.61-1.47.96-1.43Z"/>
      <path class="cls-14" d="m30.83,24.61c2.92,2.21,5.24,4.86,7.29,7.89l-.24-.06c.34,1.99-3.32-1.72-4-2.21-1.25.95-2.08-2.06-4.12-.84-.91-1.48-1.88-2.18-2.15-2.63-1.27-2.06,2.21-.3,2.69-.48.64-.24-.23-1.49.54-1.67Z"/>
      <path class="cls-13" d="m25.57,21.27c2.91,1.03,6.42,3.57,8.6,5.73.65.64,4.23,5.08,4.42,5.56.03.08.03.31-.12.3-.19-.3-.34-.34-.36-.36-2.05-3.03-4.37-5.67-7.29-7.89-2.05-1.55-3.34-2.45-5.85-3.23,0-.21.3-.08.6-.12Z"/>
      <path class="cls-22" d="m34.65,25.33c1.31,1.48,2.21,2.54,3.35,4.18-.07-.02-.24.16-.24.18.1.63,2.54,4.4,1.91,5.2-.37-.71-.76-1.36-1.19-2.03.15.01.15-.22.12-.3-.19-.47-3.77-4.92-4.42-5.56l2.15,1.61c.46-1.32-1.88-2.06-2.27-2.99-.33-.79.1-.63.6-.3Z"/>
      <path class="cls-18" d="m72.05,32.62c.12.24.63,1.01.78,1.08.66.27,5.81-.92,12.48,5.85-.45.33-.44-.19-.54-.24-.65-.35-5.92-2.62-6.45-2.75-3.25-.76-7.25.07-10.39,1.08-1.27.41-7.33,2.98-7.94,3.76-1.23,1.57.45,2.6,1.67,1.25-2.15,1.9-3.36,5.33-5.62,4.66,1.66-4.6,5.17-8.26,8.24-11.95,2.53-1.51,4.81-2.44,7.77-2.75Z"/>
      <path class="cls-18" d="m85.31,39.55c1.89,1.92,3.44,3.9,4.42,6.45-3.66-.08-2.46-5.18-10.33-7.17-5.91-1.49-13.07-.31-17.74,3.82-1.22,1.34-2.9.31-1.67-1.25.62-.79,6.68-3.36,7.94-3.76,3.15-1.01,7.15-1.84,10.39-1.08.53.13,5.8,2.4,6.45,2.75.09.05.09.57.54.24Z"/>
      <path class="cls-22" d="m89.73,46c.75,1.96,1.18,4.24,1.31,6.33-.14,0-.14.19-.24.06-.71-.9-4.08-13.37-16.91-13.08-8.93.2-14.67,5.88-18.82,13.14-.06.1-.09.23-.24.24.18-.55.24-2.75,1.19-5.38,2.25.67,3.46-2.76,5.62-4.66,4.67-4.13,11.83-5.31,17.74-3.82,7.88,1.99,6.67,7.09,10.33,7.17Z"/>
      <path class="cls-14" d="m42.06,40.86c.59,1.68,1.17,3.43,1.67,5.14.23.79.5,1.6.72,2.39-.23.78.66,2.55.72,3.29,0,.09-.24.03-.24.12,0,.09.25.03.24.12-.08.71-.68,2.07-1.43,1.13-.73-2.13-1.76-4.08-2.99-5.97.41-.19.28-.52-.12-.24,0-.04,0-.08,0-.12,0-.06.34-.67.36-1.13.04-.99-.14-1.6-.12-2.03,0-.07.68-.14-.12-1.08.6-.61.04-2.97.9-2.21.36.32-.42.59.42.6Z"/>
      <path class="cls-22" d="m40.03,52.21c.85.5.75.78,1.31-.24.18.59.82,2.71.84,3.05.14,2.95-1.96-2.43-2.15-2.81Z"/>
      <path class="cls-15" d="m40.74,47.07l-.12-.24c.4-.28.53.05.12.24Z"/>
      <path class="cls-13" d="m56.04,47.31c-.95,2.63-1.01,4.82-1.19,5.38-.03.09.11.31-.42.72l-2.03,1.43c-.32-1.37.46-2.81-.3-2.63.33-.91.7-1.74,1.08-2.63.23-.56.46-1.12.72-1.67.39-.85.78-1.96,1.19-2.75,2.16-4.15,5.18-7.4,9.2-9.8-3.07,3.68-6.58,7.35-8.24,11.95Z"/>
      <path class="cls-14" d="m53.89,47.91c-.25.55-.48,1.11-.72,1.67-.55.05-1.29,2.96-1.61,2.99-1.21.1.03-3.07-.54-3.46.42-1.94.8-3.94,1.31-5.85.01.03.42.41.54.36.12-.05.08-.58.48-.48.06.01.77.84.78.9.02.14-.51,2.49-.72,2.63.59,1.46-.52,1.92.48,1.25Z"/>
      <g>
        <path class="cls-6" d="m43.49,42.53c-.35.5-.12.94,0,1.43.2.83.85,1.72.24,2.03-.51-1.71-1.08-3.45-1.67-5.14-.76-2.15-1.31-3.91-2.39-5.97.63-.79-1.81-4.57-1.91-5.2,0-.01.17-.2.24-.18,3.13,4.52,4.4,7.65,5.5,13.02Z"/>
        <path class="cls-6" d="m43.49,43.97c-.12-.49-.35-.93,0-1.43.09.44.72.69,0,1.43Z"/>
        <path class="cls-6" d="m40.45,35.24s.26.16.12.36c-.22.32-.25-.28-.12-.36Z"/>
      </g>
    </g>
  </g>
</svg>